<?xml version="1.0" standalone="no"?><!DOCTYPE svg PUBLIC "-//W3C//DTD SVG 1.1//EN" "http://www.w3.org/Graphics/SVG/1.1/DTD/svg11.dtd"><svg t="1662895350270" class="icon" viewBox="0 0 1024 1024" version="1.1" xmlns="http://www.w3.org/2000/svg" p-id="6026" xmlns:xlink="http://www.w3.org/1999/xlink" width="200" height="200"><path d="M691.95 490.92H223.01c-38.69 0-70.17-31.48-70.17-70.17v-193.1L121.55 66.71h570.39c38.69 0 70.17 31.48 70.17 70.17v283.87c0.01 38.7-31.47 70.17-70.16 70.17zM184.13 118.29l20.29 104.38v198.07c0 10.25 8.34 18.59 18.59 18.59h468.94c10.25 0 18.59-8.34 18.59-18.59V136.88c0-10.25-8.34-18.59-18.59-18.59H184.13zM808.01 952.54H339.07c-38.69 0-70.17-31.48-70.17-70.17V598.5c0-38.69 31.48-70.17 70.17-70.17h570.44l-31.33 160.01v194.03c0 38.69-31.48 70.17-70.17 70.17zM339.07 579.91c-10.25 0-18.59 8.34-18.59 18.59v283.87c0 10.25 8.34 18.59 18.59 18.59h468.94c10.25 0 18.59-8.34 18.59-18.59V683.33l20.25-103.43H339.07z" p-id="6027"></path><path d="M312.16 199.37h290.63v51.58H312.16zM312.16 305.7h200.36v51.58H312.16zM441.12 677.36h290.63v51.58H441.12zM441.12 783.68h200.36v51.58H441.12z" p-id="6028"></path></svg>