<svg viewBox="0 0 2340 1560" xmlns="http://www.w3.org/2000/svg"><defs><style>.cls-1{fill:#fff;}.cls-1,.cls-2,.cls-3{stroke:#1a1a1a;stroke-linecap:round;stroke-linejoin:round;stroke-width:2px;}.cls-2{fill:#1a1a1a;}.cls-3{fill:#ff6b1f;}</style></defs><g id="_5"><path d="M1726.53,1211.08H644.68c-52.61,9.45-133.43,28.72-100,53.79,48.17,36.12,247.5,44.55,344.14,44.55-61.12,31.31,28,114.39,252,38.53,80.69-24.08,61,1.61,55.8,16.86s88.72,15.25,129.67-23.68,249.3-16.06,328.78-.81C1730.76,1354.84,1902.48,1227.49,1726.53,1211.08Z" class="cls-1"></path><path d="M1734.57,1068.2c-26.6-34.66-77.8-32.84-84.3-32.51,9.84-27.82-.21-57.13-21.68-69.84-22.67-13.42-48-2.38-50.59-1.21a142.34,142.34,0,0,0-103.57-242c-14.44-62.19-75.17-102.81-137.29-92.72-60.75,9.87-105.1,65.35-101.17,127.64a87.16,87.16,0,0,0-145.72,62.61L831.31,921.3c-74.66-10.34-148,25.27-184.26,89.1-35.84,63-29.37,142.5,15.14,200.68H1709.94C1755.33,1166.25,1761.65,1103.47,1734.57,1068.2Z" class="cls-1"></path><path d="M675.21,908.25l604.12,317.68c39.31-25.12,73.91-56.1,87.51-113.18L979.05,599.62Z" class="cls-1"></path><path d="M1159.62,1180c-7.84-2.09-17.86-4.17-27.7-3.9l-126.74,124.07c3.68-2.4,12.05-4.35,28.54,6.8,15.78,10.67,19.35,21.51,19.35,29.15a22.21,22.21,0,0,1-2.43,10.41,7.31,7.31,0,0,0,1.46-1l107.54-80.2-1.15.26,1.15-.26,47.88-35.7C1211.34,1202.39,1182.36,1186.52,1159.62,1180Z" class="cls-1"></path><path d="M1156.88,1151.68l-25,24.44c9.84-.27,19.86,1.81,27.7,3.9,22.74,6.5,51.72,22.37,47.9,49.62l42.1-31.4C1263.27,1175.22,1196.36,1119.57,1156.88,1151.68Z" class="cls-1"></path><polygon points="1050.63 1346.57 1050.63 1346.56 1050.63 1346.56 1050.63 1346.57" class="cls-1"></polygon><path d="M1005.18,1300.19l-.4.4-2,2A8.08,8.08,0,0,1,1005.18,1300.19Z" class="cls-1"></path><path d="M1053.07,1336.14a22.21,22.21,0,0,1-2.43,10.41s0,0,0,0c-15,8.1-58.76-26.92-47.9-44h0l2-2,.4-.4c3.68-2.4,12.05-4.35,28.54,6.8C1049.5,1317.66,1053.07,1328.5,1053.07,1336.14Z" class="cls-2"></path><path d="M675.21,908.25s74.21,32.58,197.48-101.34C965.15,706.47,1001,624.55,979.05,599.62,947.33,567.29,811,657.73,768.15,714.46,730.7,764.07,632.32,867.51,675.21,908.25Z" class="cls-1"></path><path d="M689.8,893.05s67,29.41,178.24-91.47C951.49,710.93,983.84,637,964,614.5c-28.64-29.19-151.71,52.44-190.36,103.64C739.88,762.92,651.09,856.28,689.8,893.05Z" class="cls-2"></path><path d="M1358.8,1138.15l-6.2,13.53s-13.06-19.67-33.73-33.51l6-9C1337.37,1115.71,1348.42,1126,1358.8,1138.15Z" class="cls-2"></path><path d="M1343.35,1167.3,1335,1179s-13-19.66-33.72-33.51l6-9C1319.77,1143,1333,1155.19,1343.35,1167.3Z" class="cls-2"></path><path d="M1319.47,1195.31l-11.67,8.85c-.79,3-14.81-12.9-33.72-33.52l6-9C1290.12,1172,1306.33,1187.5,1319.47,1195.31Z" class="cls-2"></path><path d="M568,774.42c-1.27,4-.45,7.85,1.83,8.57l43,13.58c2.28.72,5.16-2,6.43-6s.45-7.85-1.83-8.57l-43-13.58C572.18,767.73,569.3,770.4,568,774.42Z" class="cls-1"></path><path d="M632.15,646.61c-2.65,3.27-3.3,7.14-1.44,8.65l35,28.38c1.86,1.5,5.51.07,8.16-3.2s3.3-7.15,1.44-8.65l-35-28.39C638.46,641.9,634.8,643.33,632.15,646.61Z" class="cls-1"></path><path d="M715.85,547.35c-3.41,2.47-5,6-3.64,8l26.48,36.5c1.4,1.94,5.3,1.5,8.71-1s5-6,3.64-8l-26.48-36.5C723.16,544.44,719.26,544.87,715.85,547.35Z" class="cls-1"></path><path d="M831.79,509.81c-4.18.49-7.35,2.82-7.07,5.19L830,559.78c.27,2.37,3.89,3.9,8.08,3.4s7.35-2.81,7.07-5.18l-5.27-44.78C839.59,510.84,836,509.32,831.79,509.81Z" class="cls-1"></path><polygon points="759.05 1052.95 583.22 1268.08 771.89 1309.82 904.38 1089.87 759.05 1052.95" class="cls-1"></polygon><polygon points="1596.06 503.47 1583.88 537.59 1517.79 722.62 1366.84 798.48 1182.45 1077.29 904.38 1089.87 771.89 1309.82 797.58 1313.03 913.6 1109.94 1184.98 1097.1 1373.26 815.34 1525.02 733.85 1592.12 532.45 1599.68 509.76 1627.16 510.56 1636.61 510.83 1638.49 503.47 1596.06 503.47" class="cls-2"></polygon><polygon points="1517.79 722.62 1583.88 537.59 1596.06 503.47 1638.49 503.47 1611.19 365 1492.9 496.11 1542.68 500.93 1504.5 587.2 1447.93 714.99 1279.33 782.42 1366.84 798.48 1517.79 722.62" class="cls-1"></polygon><polygon points="1182.45 1077.29 1054.76 1041.71 759.05 1052.95 904.38 1089.87 1182.45 1077.29" class="cls-1"></polygon><polygon points="1366.84 798.48 1279.33 782.42 1054.76 1041.71 1182.45 1077.29 1366.84 798.48" class="cls-1"></polygon><path d="M1687.06,700.94H1564.21s-2.57-13,5.33-21.09c.91-.93,7.27-7.17,16.75-6.2a21,21,0,0,1,12.85,6.42,28.65,28.65,0,0,1,50.58-25.68c13.94-13.57,35-12.78,45.36-2C1706.61,664.32,1705.11,688.59,1687.06,700.94Z" class="cls-1"></path><path d="M1366.84,549.63h114.28c5-6.72,6.08-15.14,2.68-20.87-4.87-8.21-19.22-11.29-30.51-2.68-2-18.26-17.49-30.23-31.58-28.36-10.22,1.35-19.16,9.91-22.48,21.4-17.36-12.78-36.36-9.68-41.22-1.6C1353.72,524.65,1353.74,539.23,1366.84,549.63Z" class="cls-1"></path><path d="M684.38,339.71h177c13.36-17.66,12.61-39.64,2.54-49.63-12.15-12.06-41.71-10.49-58.34,13.38-8.83-29.83-33.09-47.11-53.53-43.89-13.17,2.08-30.39,13.58-32.11,30.51-.94,9.17,3,16.66,5.35,20.33-22.14-13.08-43.52-8.46-48.71,1.61C672.88,319.27,677,330.47,684.38,339.71Z" class="cls-1"></path><polygon points="1122.58 422.63 1107.37 431.46 1109.14 440.81 1125.31 429.32 1122.58 422.63" class="cls-1"></polygon><polygon points="1116.34 422.63 1265.14 331.55 1282.27 358.31 1122.98 434.9 1116.34 422.63" class="cls-1"></polygon><path d="M1230.62,347.34c9.28,7.86,15.55,19.48,20.61,32.64l34.92-17.26s3.88-7.76-5.22-21.94-20-16-20-16Z" class="cls-1"></path><path d="M1142.36,379.28c-32,1.09-82.6-2.48-121.33,18.23-49.55,26.49-61.26,82.68-61.26,82.68L1029,476s-5.42-25.49,11.45-47.36c14-18.13,74.63-30.19,102-35.39A20,20,0,0,0,1142.36,379.28Z" class="cls-3"></path><path d="M1164.11,376.64c-5.35,1.66-12.82,2.33-21.75,2.64a20,20,0,0,1,.11,14c5.67-1.08,9.91-1.86,12-2.34-.4,6.82,3.27,6.39,3.27,6.39s2.17-2.06,11.78-8.2c17.91,5.2,33.72-3.41,39.74-8.83S1188.6,369,1164.11,376.64Z" class="cls-1"></path><path d="M897.73,1031.07a5.54,5.54,0,0,1-2.71-3.74c-1-7.76-24.59-4.14-24.59-4.14s-1.34,1.77-3.08,4.56C876.59,1033.69,887.62,1034.26,897.73,1031.07Z" class="cls-2"></path><path d="M927.88,1043.17c-7.33-6.12-23.65-7.63-30.15-12.1-10.11,3.19-21.14,2.62-30.38-3.32-4.61,7.38-12,21.89-4.68,29.59,10.09,10.61,66.76,3.88,68.31,1.81S936.94,1050.74,927.88,1043.17Z" class="cls-1"></path><path d="M1000.16,1046c-5.21-1.75-9.18-3.75-9.61-6.94-1.07-8-25.42-4.28-25.42-4.28a75,75,0,0,0-4.76,7.34C972,1048.2,987.21,1049.38,1000.16,1046Z" class="cls-2"></path><path d="M1024.54,1055.42c-5.65-4.72-16.45-6.79-24.38-9.45-12.95,3.41-28.19,2.23-39.79-3.88-4.63,8.08-10,20.85-3.27,28,10.44,11,69.05,4,70.65,1.87S1033.91,1063.25,1024.54,1055.42Z" class="cls-1"></path><path d="M907.32,735.86s7,94.73-2.68,137-47.64,144-40,148.78,43.76,8.83,51,0,57.48-126,61.66-173S907.32,735.86,907.32,735.86Z" class="cls-1"></path><path d="M903.57,674.32S891.8,687.43,890.73,717s53.52,127,59.94,171.38,2.65,142.18,11.75,149.41,38.57,6,40.71,0,68.51-220.58,59.95-296-15.52-80.81-15.52-80.81Z" class="cls-1"></path><path d="M1023.38,705.16s-1.52,24.88-27.46,36.12" class="cls-1"></path><path d="M899.15,681.24s11.11,14.49,53.53,12.35,94.32-3.48,98.62-12.71l1.41-10.64-3.81-5s-143.59,4.35-143.59,5.35S899.15,681.24,899.15,681.24Z" class="cls-2"></path><path d="M1058.8,453.57s2.94,8,21.68,15.25c29.44,12.58,33.45-44.69,32.92-48.7s-4.82-15.25-28.37-16.32-34.8,34.25-34.8,34.25-36.93,30.23-38,30.77l29.71,20.07,24.76-27.12" class="cls-1"></path><path d="M1058.8,454.07l4,10.47,3.45-2.3C1063.5,461.73,1061.56,457.65,1058.8,454.07Z" class="cls-2"></path><path d="M1077.8,438.45s-7,10.43-12.24,10.23-19.88-4.61-20.08-13,10.24-19.07,11-26.09,9.64-24.08,32.32-23.08,26.09,16.06,34.32,21.48,5.82,5.21,0,8.83-18.46,17.05-27.09,10.23-16.8-8.07-19.88-4.62C1071.32,427.87,1070.37,428.62,1077.8,438.45Z" class="cls-2"></path><path d="M1127.28,463.6s-6.29-18.6-2.68-26.49,9.9-2.94,11.64-10.43,4.82-5.76,4.69-.67-3.21,9.9-3.21,9.9a35.58,35.58,0,0,0,10.57-14.29c3.34-8.86,7.49-12.2,9.23-10.2s5.62,22.46-2.81,29.29-15.12,19.41-15.25,23.69S1127.28,463.6,1127.28,463.6Z" class="cls-1"></path><path d="M1013.3,460.79s-42.82-13.91-74.94,40.67-76,168.58-28.9,179.28,148.27,7,153.89-18.73S1086.5,475.51,1013.3,460.79Z" class="cls-3"></path><path d="M967.8,529.56s12.85,74.65,73.87,69.84,107.59-74.39,99-133.79c-13.38-3.75-15.92-2.14-17.39,0s.47,57.33-40.08,61.74-52-16.05-55.4-21.47c-4.62-11-5.62-11.44-5.62-11.44" class="cls-3"></path><path d="M755.84,827.37s-53-82.68-12.85-128.43,104.38-4.82,132.48,15.25S803.21,851.46,755.84,827.37Z" class="cls-1"></path><ellipse ry="59.23" rx="59.24" cy="240.23" cx="1620.83" class="cls-1"></ellipse><ellipse ry="50.85" rx="50.86" cy="240.23" cx="1620.83" class="cls-1"></ellipse><path d="M1632.05,254.9a8.33,8.33,0,0,0-2.58-6.2q-2.58-2.52-8.7-4.56-8.52-2.59-12.42-6.77a15,15,0,0,1-3.9-10.62,15.41,15.41,0,0,1,3.82-10.76,16.28,16.28,0,0,1,10.5-5v-8.75h6V211a15.46,15.46,0,0,1,10.46,5.64q3.74,4.72,3.74,12.92h-7.36q0-5.66-2.68-9a8.81,8.81,0,0,0-7.24-3.33q-4.76,0-7.28,2.47a9.16,9.16,0,0,0-2.52,6.87,8.4,8.4,0,0,0,2.66,6.51q2.65,2.41,8.76,4.4a37,37,0,0,1,9.52,4.36,15.39,15.39,0,0,1,5,5.54,16,16,0,0,1,1.62,7.4q0,6.76-4.06,10.88T1624,270.58v7.63h-5.92v-7.63q-7.44-.69-11.66-5.3t-4.22-12.54h7.4c0,3.71,1,6.56,2.92,8.56s4.71,3,8.28,3,6.24-.84,8.24-2.52A8.51,8.51,0,0,0,1632.05,254.9Z" class="cls-1"></path></g></svg>