<svg viewBox="0 0 2340 1560" xmlns="http://www.w3.org/2000/svg"><defs><style>.cls-1{fill:#1a1a1a;}.cls-1,.cls-2,.cls-3,.cls-4,.cls-5{stroke:#1a1a1a;}.cls-1,.cls-2,.cls-3,.cls-4,.cls-5,.cls-6{stroke-linecap:round;stroke-linejoin:round;}.cls-1,.cls-2,.cls-3,.cls-5,.cls-6{stroke-width:2px;}.cls-2,.cls-7,.cls-8{fill:#fff;}.cls-3,.cls-4,.cls-6{fill:none;}.cls-4{stroke-width:3px;}.cls-5{fill:#ff6b1f;}.cls-6{stroke:#fff;}.cls-7{stroke:#000;stroke-miterlimit:10;}</style></defs><g id="_8"><path d="M1573.35,1052.41c10.19,1.7,21.79.59,29-6.78,10.72-10.89,7-29,11.87-43.5,5.08-15,20.9-25.73,36.76-24.82s30.35,13.33,33.68,28.87c2.63,12.28.31,28.19,11.18,34.5,9.26,5.38,21.06-1.32,27.87-9.58s11.85-18.59,21.22-23.78c15.28-8.45,36.44,2.67,41.23,19.45s-4.52,35.45-19.1,45-33.18,11.34-50.44,8.72c-12.2-1.85-27.25-4.69-34.71,5.14-5.62,7.4-3.5,18.51-8.7,26.21-6.63,9.82-21.48,9.23-32.44,4.72s-21.26-11.88-33.11-12.19c-19.46-.51-32.75,16.68-48.49,25.28-17.36,9.47-37.81,8.72-53.75-3.43-22.93-17.47-25.19-52.67-1.59-70.62C1526.38,1038.54,1548.76,1048.3,1573.35,1052.41Z" class="cls-1"></path><path d="M1403.43,1077.49c-5.6-20.11-11.1-40.35-7.64-60.93s18.8-40.76,39.59-42.64c15.74-1.42,34.21,6.85,46-3.73,6.79-6.12,8-16.37,7-25.46s-3.74-18.09-3-27.22c1.27-17,15.87-32,32.81-33.7s34.27,10,38.93,26.41c2.22,7.83,1.8,16.21,4,24s8.41,15.64,16.55,15.46c7.06-.15,12.65-6.31,15.3-12.86s3.25-13.74,5.55-20.41c5.72-16.58,22.72-28.56,40.26-28.37s34.27,12.56,39.61,29.26-1.11,36.47-15.27,46.81c-9.34,6.81-21,9.5-31.18,15s-19.43,16-17.39,27.36c2.3,12.82,17.69,20.41,19.32,33.33,1.45,11.39-9.24,21.4-20.51,23.65s-22.8-1.1-33.9-4.06-23-5.53-33.9-1.87c-11.78,4-20,14.39-29.4,22.48C1486.75,1105.15,1434.58,1100.23,1403.43,1077.49Z" class="cls-2"></path><path d="M1431.22,1051.28c43.15-14.35,87-29.06,124.06-55.47a228.94,228.94,0,0,0,41.38-38" class="cls-3"></path><path d="M1523.15,944.46c4.41,32.76-4.94,59.88-27.85,83.71" class="cls-3"></path><path d="M1553.44,997.11c17.84,3.73,32.32,6.17,48.3,14.93" class="cls-3"></path><path d="M1576.54,1119.22c-18.26-50-70.31-83.38-127.61-80.82,38.12-72,21.47-159.12-38.91-211-54.86-47.14-136.2-56.88-203.87-23.95L919.8,861.82c-81.63-74.69-212.06-63.11-275.46,16.46-61.63,77.35-42.68,197.32,48.25,255.9-61.7-16.75-116.12,17.56-123,56.87a51.59,51.59,0,0,0-.74,8.33c-.23,24.64,16.51,50.77,42.76,68h904.18a128.43,128.43,0,0,0,54.41-55C1584.86,1183.63,1587.83,1150.1,1576.54,1119.22Z" class="cls-2"></path><polyline points="1574.6 1269.57 579.88 1269.57 553.04 1269.57" class="cls-4"></polyline><rect rx="12.65" height="36.83" width="220.64" y="953.14" x="999.86" class="cls-1"></rect><rect height="267.14" width="174.3" y="989.97" x="1023.03" class="cls-2"></rect><path d="M1212.85,1249.34H1017.64c-9.4,0-17,4.25-17,9.5s7.63,9.49,17,9.49h195.21c9.4,0,17-4.25,17-9.49S1222.25,1249.34,1212.85,1249.34Z" class="cls-2"></path><path d="M1446.67,538.85H1433s-34.58-98.21-33-151.11c1.5-51.19,49.6-150.88-6.85-157.35l.67-.08,1.66-.11c.87-.06,1.76-.09,2.66-.12s1.66,0,2.52,0h0c16.16,0,25.27,6.3,29.78,16.59a.15.15,0,0,1,0,.06c13.87,31.69-15.65,101.13-16.83,141.05C1412.09,440.64,1446.67,538.85,1446.67,538.85Z" class="cls-2"></path><path d="M1358.14,538.85V303.69c-.51-2-21.52-68,35-73.3h0c56.45,6.47,8.35,106.16,6.85,157.35-1.56,52.9,33,151.11,33,151.11Z" class="cls-1"></path><path d="M1358.14,303.69V538.85h-13.68V303.69h12.8c-.51-2-22-68.05,35.77-73.32h0a0,0,0,0,1,0,0C1336.62,235.73,1357.63,301.71,1358.14,303.69Z" class="cls-2"></path><rect height="583.74" width="13.61" y="303.69" x="1344.54" class="cls-2"></rect><rect height="583.74" width="551.96" y="303.69" x="792.58" class="cls-2"></rect><path d="M1377.85,230a45.27,45.27,0,0,0-7.73,1.92h0c-37.61,13-25.46,70.25-25.57,71.72H791.94c-.54-2.07-23.81-73.65,43.4-73.65Z" class="cls-2"></path><path d="M1360,303.69h-15.42c.11-1.47-12-58.68,25.57-71.72h0A68.14,68.14,0,0,1,1387,230a52.22,52.22,0,0,1,6,.33C1335.26,235.64,1359.45,301.71,1360,303.69Z" class="cls-2"></path><path d="M1377.85,230H1387a68.14,68.14,0,0,0-16.88,1.92A45.27,45.27,0,0,1,1377.85,230Z" class="cls-2"></path><path d="M1400.63,230c-.86,0-1.71,0-2.52,0s-1.79.06-2.66.12l-1.66.11c-.25,0-.5,0-.73.06h0a52.22,52.22,0,0,0-6-.33Z" class="cls-2"></path><rect height="22.34" width="21.64" y="505.36" x="841.44" class="cls-2"></rect><rect height="71.37" width="21.64" y="456.33" x="888.61" class="cls-2"></rect><rect height="54.03" width="21.64" y="473.67" x="935.78" class="cls-2"></rect><rect height="96.16" width="21.64" y="431.54" x="982.95" class="cls-2"></rect><rect height="121.31" width="21.64" y="406.39" x="1030.12" class="cls-2"></rect><path d="M1111.48,458.53s-35.28-14.26-32.42-41S1112,375,1126.78,385.65s9.08,22.05,20.75,17.9,32.16-8,39.94,4.93,6.75,4.67,14.53,3.63,18.67,20.75,8.82,31.38-7,11.93-7,18.94-7.2,26.19,10.92,29.56,12.16,19.45,8.79,29.57,7.78,23.86,18.15,25.42,18.94,14,18.42,24.64,10.12,20.23,17.38,28.27,21.53,63.28,5.45,73.4-41.51,21.78-58.36,0-93.12-110.23-93.12-110.23,6.48-72.88,7-76.77S1111.48,458.53,1111.48,458.53Z" class="cls-1"></path><path d="M1069.13,1235.54l-9.44-15.55s-45,28.35-45,44.61a43.06,43.06,0,0,1-1.23,9.47C1035.14,1268.68,1056.87,1254.83,1069.13,1235.54Z" class="cls-2"></path><path d="M1098.08,1283.27l-28.95-47.73c-12.26,19.29-34,33.14-55.63,38.53-3.62,15.77-14.48,35.4-21.59,43.09-8.65,9.34-.7,20.4,24.2,5.53,32.17-17.29,50.84-51.52,50.84-51.52l22.48,18.32C1098.42,1292.26,1098.08,1283.27,1098.08,1283.27Z" class="cls-1"></path><path d="M937.87,1153.66c-19.88,7.2-43.64,10.65-62.18-.26-7.83,14.33-32.14,31.39-43.9,35.68-12,4.37-9.92,17.85,19,16,36.51-.72,68.74-22.68,68.74-22.68l11.65,26.56c6.74,6.57,10.53-1.59,10.53-1.59Z" class="cls-1"></path><path d="M937.87,1153.66l-1.44-20.15s-52.95,4.74-60.36,19.2c-.12.23-.25.46-.38.69C894.23,1164.31,918,1160.86,937.87,1153.66Z" class="cls-2"></path><path d="M1078.89,928.93s-73.5,18-72.81,78.15,29.75,177.06,69.86,199.89c-6.22,40.8-56.72,64.32-69.86,65-20.75-46.34-67.09-161.15-72.62-181.21S913.4,928.93,913.4,928.93l66.4-41.5,99.09,18" class="cls-2"></path><path d="M1226.38,835.91s20.23,9.33,17.12,46.68-56,80.4-129.17,76.77-75.22-22.3-143.69-34.75-50.32,117.06,3.63,191.75c-24.21,57.41-101,33.89-101.68,26.28,3.46-31.12-20.75-165.3-34.58-210.94s23.52-102.36,110.67-101,83.69,5.53,83.69,5.53l18-36.65L1217,818.27" class="cls-2"></path><path d="M1126.14,834.35s25.83,3.77,41.33,17.55,67,14.75,72-2.34l-10-14.38Z" class="cls-1"></path><path d="M1020.44,825.53s22.5,19.71,52.09,17.64,76-8.51,91.6.15,78.33,18.52,75.22-13.12-5-190-46-237.75l-29.56-23.51-46.87-5.71s-46.16,16.08-53.08,34.58S1003.32,788.7,1020.44,825.53Z" class="cls-5"></path><path d="M1140.79,522.6s-34.24,5.44-37.87-17.9,6.27-47.2,6.27-47.2,11.19,5.1,20-1.47,31.3-5.36,28,2.76-5,12.63.33,12.28,5.38-13.66,13.33-12.45,11.94,26.8.7,27-14.7,23.52-10.55,36.32,10.68,55.24,10.68,53.34-40.42-1-49.42,8.56-9.33,17.11-15.9,14.52,6.57-14.7,8.12-20.4-.52-14.7-.52-14.7,16.61-11.37,14.71-40.2" class="cls-2"></path><polygon points="1128.84 527.76 1140.32 522.86 1129.15 523.96 1128.84 527.76" class="cls-1"></polygon><path d="M1170.32,574.87s48.28,10.49,62.29,88.82c9.48,53-2.64,167.72-130.49,177.4-20.64-4.15-23.41-17.29-10.27-27,36.66-9,85.27-47.72,86.67-85.07,1.43-38.13-1.94-66.14-13.35-80.23" class="cls-5"></path><path d="M1114,563.23s-51.52,18-71.76,52.22-52.91,98-59.13,169.1c22.3,32.16,43.05,30.09,43.05,30.09s9-123.71,46.39-176.37" class="cls-5"></path><path d="M1092.8,820.09s13.23,5.7,7.78,16.33c-14.78,7.79-41.84,8.56-52,1.82a29.8,29.8,0,0,1-13.32-18.15s16.86-10.38,22.83-10.12S1081.91,820.09,1092.8,820.09Z" class="cls-2"></path><polygon points="1001.93 707.57 847.69 707.57 879.29 834.35 1033.53 834.35 1001.93 707.57" class="cls-1"></polygon><polygon points="989.44 707.57 835.2 707.57 866.8 834.35 1021.04 834.35 989.44 707.57" class="cls-2"></polygon><rect height="11.78" width="158.38" y="834.35" x="934.76" class="cls-1"></rect><rect height="11.78" width="158.38" y="834.35" x="874" class="cls-2"></rect><path d="M1293.67,385.58,1264,355.91a3.89,3.89,0,0,0-.5-.41,25.1,25.1,0,0,0,4-7.84,25.76,25.76,0,0,0,.08-14.76,25.64,25.64,0,0,0-49.17,0,25.65,25.65,0,0,0,.07,14.76,25.65,25.65,0,0,0,37.11,14.84,27.56,27.56,0,0,0,2.41-1.56,2.93,2.93,0,0,0,.46.54l29.66,29.67a3.92,3.92,0,0,0,5.56,0,3.92,3.92,0,0,0,0-5.57ZM1243,359a18.74,18.74,0,0,1-17.22-11.3,18.34,18.34,0,0,1-1.57-7.49,18.79,18.79,0,1,1,37.58,0,18.49,18.49,0,0,1-1.56,7.49A18.79,18.79,0,0,1,1243,359Z" class="cls-2"></path><path d="M1218.47,347.66H824.92V332.9H1218.4a25.65,25.65,0,0,0,.07,14.76Z" class="cls-2"></path><path d="M1309.65,332.9v14.76h-42.16a25.76,25.76,0,0,0,.08-14.76Z" class="cls-2"></path><rect height="6.57" width="216.57" y="538.85" x="835.2" class="cls-2"></rect><path d="M863.09,620.69l-32.23,25.87a41.32,41.32,0,0,1,0-51.74h0C830.86,595.45,863.09,620.69,863.09,620.69Z" class="cls-5"></path><path d="M904.41,620.69a41.33,41.33,0,0,1-73.55,25.87l32.23-25.87s-32.23-25.24-32.23-25.86h0a41.33,41.33,0,0,1,73.55,25.87Z" class="cls-2"></path><path d="M1010.77,620.69a41.32,41.32,0,0,1-73.54,25.87l32.21-25.87s23.28-32,24.31-33.35l0,0A41.24,41.24,0,0,1,1010.77,620.69Z" class="cls-2"></path><path d="M993.78,587.3l0,0c-1,1.38-24.31,33.35-24.31,33.35l-32.21,25.87a41.32,41.32,0,0,1,56.55-59.26Z" class="cls-5"></path><ellipse ry="8.86" rx="9.5" cy="477.72" cx="1107.17" class="cls-3"></ellipse><ellipse ry="8.86" rx="9.5" cy="477.72" cx="1134.58" class="cls-3"></ellipse><line y2="468.87" x2="1158" y1="473.67" x1="1144.08" class="cls-3"></line><line y2="476.31" x2="1124.42" y1="476.31" x1="1115.93" class="cls-3"></line><path d="M1538.07,1089.62c16.1-.64,32.27-1.82,47.91-5.67s30.83-10.5,43-21.06c13.3-11.54,22.34-27.08,31.13-42.33" class="cls-6"></path><path d="M1735.68,1045.62c-6.73,5.82-16,7.63-24.75,8.93-20.94,3.1-58.59,6.6-79.76,6.37" class="cls-6"></path><path d="M1565.88,716a38.44,38.44,0,0,1-33.61,19.76h-37.14l-10.78,12.77a5.33,5.33,0,0,1-9.4-3.43v-10a38.46,38.46,0,0,1,6.91-76.29H1509A38.46,38.46,0,0,0,1542.6,716Z" class="cls-1"></path><path d="M1631.46,677.54a38.46,38.46,0,0,1-31.55,37.83v10a5.32,5.32,0,0,1-9.38,3.44L1579.73,716H1542.6a38.46,38.46,0,0,1,0-76.92H1593A38.46,38.46,0,0,1,1631.46,677.54Z" class="cls-7"></path><path d="M681,742.61l-10.89,11.13,2.25,16.68,13.47,7.83-4.32,19.83L666,799.6l-9,14.23,5.28,14.65L646.24,840.9l-12.84-8.8-16,5.12L612,851.84,591.7,851l-4.18-15-15.58-6.38-13.51,7.74-15-13.66,6.43-14.18L542,794.64l-15.32-2.75L524,771.77,538,765l3.58-16.45-10-12,10.84-17.16,15.09,3.88,13.32-10.3,0-15.57,19.34-6.17L599.32,704l16.83.67,10-11.9,18.79,7.7L643.78,716l12.45,11.33,15.35-2.66Z" class="cls-7"></path><path d="M662.3,603.29,655.75,610l1.36,10,8.09,4.7-2.6,11.92-9.31.91-5.4,8.55,3.17,8.81-9.65,7.46-7.72-5.29-9.64,3.07-3.22,8.79-12.19-.49-2.51-9-9.36-3.84-8.12,4.65-9-8.2,3.86-8.52-4.7-9-9.21-1.65L568,620.81l8.44-4,2.15-9.88-6-7.19,6.51-10.31,9.06,2.33,8-6.19,0-9.36,11.61-3.7,5.45,7.6,10.11.41,6-7.15L640.65,578l-.72,9.33,7.48,6.8,9.22-1.59Z" class="cls-7"></path><circle r="17.89" cy="620.69" cx="615.63" class="cls-1"></circle><line y2="838.28" x2="656.31" y1="807.09" x1="630.75" class="cls-8"></line><path d="M659.4,835.75l-21.52-26.27a50.08,50.08,0,1,0-6.44,4.77l21.77,26.57ZM601,810.64a39.26,39.26,0,0,1,3.82-78.33c1.31,0,2.64.07,3.94.2A39.26,39.26,0,0,1,605,810.83C603.66,810.83,602.33,810.77,601,810.64Z"></path><path d="M644.28,832.75,679.68,876a2.42,2.42,0,0,0,3.4.34l5.42-4.44a2.42,2.42,0,0,0,.34-3.41l-35.32-43.11a2.42,2.42,0,0,0-3.37-.36l-5.5,4.34A2.42,2.42,0,0,0,644.28,832.75Z" class="cls-1"></path></g></svg>