<?xml version="1.0" standalone="no"?><!DOCTYPE svg PUBLIC "-//W3C//DTD SVG 1.1//EN" "http://www.w3.org/Graphics/SVG/1.1/DTD/svg11.dtd"><svg t="1662897125610" class="icon" viewBox="0 0 1024 1024" version="1.1" xmlns="http://www.w3.org/2000/svg" p-id="14887" xmlns:xlink="http://www.w3.org/1999/xlink" width="200" height="200"><path d="M845 547.45h65.54A400.6 400.6 0 0 0 712.7 201.77l-33.22 56.49C781.6 318.32 845 429.13 845 547.45zM347.72 253.92L316 196.58a401.21 401.21 0 0 0-207 350.87h65.54a335.66 335.66 0 0 1 173.18-293.53zM509.79 882.68a334 334 0 0 1-181.3-53.2L293 884.57a401.13 401.13 0 0 0 419.1 8.91L679 836.93a334.94 334.94 0 0 1-169.21 45.75z" p-id="14888"></path><path d="M821.51 625.1A108.64 108.64 0 0 0 752.2 650l-67.31-38.86a185.44 185.44 0 0 0 11.22-63.7c0-91.55-66.38-167.9-153.54-183.42V289a109.14 109.14 0 1 0-65.57 0v75c-87.16 15.53-153.54 91.87-153.54 183.42a185.46 185.46 0 0 0 11.22 63.7L267.39 650a109.17 109.17 0 1 0 35.81 55l64.47-37.23a186 186 0 0 0 284.23 0L716.38 705a109.13 109.13 0 1 0 105.13-79.9zM198.07 777.85a43.6 43.6 0 1 1 43.61-43.61 43.66 43.66 0 0 1-43.61 43.61z m311.72-636.53a43.61 43.61 0 1 1-43.61 43.61 43.65 43.65 0 0 1 43.61-43.61z m0 526.91a120.78 120.78 0 1 1 120.78-120.78 120.91 120.91 0 0 1-120.78 120.77z m311.72 109.62a43.6 43.6 0 1 1 43.61-43.61 43.65 43.65 0 0 1-43.61 43.61z" p-id="14889"></path></svg>