<?xml version="1.0" standalone="no"?><!DOCTYPE svg PUBLIC "-//W3C//DTD SVG 1.1//EN" "http://www.w3.org/Graphics/SVG/1.1/DTD/svg11.dtd"><svg t="1662896937856" class="icon" viewBox="0 0 1024 1024" version="1.1" xmlns="http://www.w3.org/2000/svg" p-id="3106" xmlns:xlink="http://www.w3.org/1999/xlink" width="200" height="200"><path d="M904 176H120c-30.9 0-56 25.1-56 56v560c0 30.9 25.1 56 56 56h784c30.9 0 56-25.1 56-56V232c0-30.9-25.1-56-56-56z m0 616H120V232h784v560z" p-id="3107"></path><path d="M232 736h168c30.9 0 56-25.1 56-56V512c0-30.9-25.1-56-56-56H232c-30.9 0-56 25.1-56 56v168c0 30.9 25.1 56 56 56z m0-224h168v168H232V512zM204 372h616c15.5 0 28-12.5 28-28s-12.5-28-28-28H204c-15.5 0-28 12.5-28 28s12.5 28 28 28zM820 456H540c-15.5 0-28 12.5-28 28s12.5 28 28 28h280c15.5 0 28-12.5 28-28s-12.5-28-28-28zM820 568H540c-15.5 0-28 12.5-28 28s12.5 28 28 28h280c15.5 0 28-12.5 28-28s-12.5-28-28-28zM820 680H540c-15.5 0-28 12.5-28 28s12.5 28 28 28h280c15.5 0 28-12.5 28-28s-12.5-28-28-28z" p-id="3108"></path></svg>